<svg width="29" height="29" viewBox="0 0 29 29" fill="none" xmlns="http://www.w3.org/2000/svg">
<path fill-rule="evenodd" clip-rule="evenodd" d="M0.585786 24.5858C-0.195262 25.3668 -0.195262 26.6332 0.585786 27.4142C1.36684 28.1953 2.63316 28.1953 3.41421 27.4142L13.971 16.8574L24.8612 27.7475C25.6422 28.5286 26.9086 28.5286 27.6896 27.7475C28.4707 26.9665 28.4707 25.7002 27.6896 24.9191L16.7995 14.029L27.4142 3.41421C28.1953 2.63317 28.1953 1.36683 27.4142 0.585786C26.6332 -0.195262 25.3668 -0.195262 24.5858 0.585786L13.971 11.2005L3.6896 0.919101C2.90856 0.138053 1.64223 0.138053 0.861177 0.919101C0.0801285 1.70015 0.0801285 2.96648 0.861177 3.74753L11.1426 14.029L0.585786 24.5858Z" fill="#F6F6F9"/>
</svg>
