<svg width="36" height="31" viewBox="0 0 36 31" fill="none" xmlns="http://www.w3.org/2000/svg">
<path d="M2.08105 8.67532V24.3923C2.08105 27.4613 4.26172 28.7213 6.91082 27.2029L10.7068 25.0384C11.5306 24.57 12.9036 24.5215 13.7597 24.9576L22.2401 29.2059C23.0962 29.6259 24.4692 29.5936 25.293 29.1251L32.2873 25.1192C33.1757 24.6023 33.9187 23.3423 33.9187 22.3085V6.59158C33.9187 3.5225 31.7381 2.26256 29.089 3.78095L25.293 5.94546C24.4692 6.41389 23.0962 6.46235 22.2401 6.02622L13.7597 1.79412C12.9036 1.37414 11.5306 1.40645 10.7068 1.87489L3.71251 5.88084C2.80794 6.39774 2.08105 7.65768 2.08105 8.67532Z" stroke="#F6F6F9" stroke-width="3" stroke-linecap="round" stroke-linejoin="round"/>
<path d="M12.208 2.57019V23.5692" stroke="#F6F6F9" stroke-width="3" stroke-linecap="round" stroke-linejoin="round"/>
<path d="M23.7891 6.80225V28.415" stroke="#F6F6F9" stroke-width="3" stroke-linecap="round" stroke-linejoin="round"/>
</svg>
